<svg width="85" height="85" viewBox="0 0 85 85" fill="none" xmlns="http://www.w3.org/2000/svg">
<path d="M85 60.3075C85 75.7775 75.7775 85 60.3075 85H55.25C52.9125 85 51 83.0875 51 80.75V56.2275C51 55.08 51.935 54.1025 53.0825 54.1025L60.5625 53.975C61.1575 53.9325 61.6675 53.5075 61.795 52.9125L63.2825 44.795C63.41 44.03 62.815 43.3075 62.0075 43.3075L52.955 43.435C51.765 43.435 50.83 42.5 50.7875 41.3525L50.6175 30.94C50.6175 30.26 51.17 29.665 51.8925 29.665L62.0925 29.495C62.815 29.495 63.3675 28.9425 63.3675 28.22L63.1975 18.02C63.1975 17.2975 62.645 16.745 61.9225 16.745L50.4475 16.915C43.3925 17.0425 37.7825 22.8225 37.91 29.8775L38.1225 41.565C38.165 42.755 37.23 43.69 36.04 43.7325L30.94 43.8175C30.2175 43.8175 29.665 44.37 29.665 45.0925L29.7925 53.1675C29.7925 53.89 30.345 54.4425 31.0675 54.4425L36.1675 54.3575C37.3575 54.3575 38.2925 55.2925 38.335 56.44L38.7175 80.665C38.76 83.045 36.8475 85 34.4675 85H24.6925C9.2225 85 0 75.7775 0 60.265V24.6925C0 9.2225 9.2225 0 24.6925 0H60.3075C75.7775 0 85 9.2225 85 24.6925V60.3075Z" fill="#120333"/>
</svg>
