<svg width="85" height="85" viewBox="0 0 85 85" fill="none" xmlns="http://www.w3.org/2000/svg">
<path fill-rule="evenodd" clip-rule="evenodd" d="M24.9782 0.255C29.5115 0.0472136 30.9565 0 42.5 0C54.0457 0 55.4884 0.0495704 60.0193 0.255C64.5455 0.460429 67.6364 1.18057 70.3398 2.23125C73.1753 3.29881 75.7439 4.9715 77.867 7.13293C80.0287 9.25573 81.7016 11.8245 82.7688 14.6601C83.8193 17.3636 84.5371 20.4543 84.745 24.9782C84.9529 29.5115 85 30.9565 85 42.5C85 54.0434 84.9505 55.4884 84.745 60.022C84.5395 64.5455 83.8193 67.6364 82.7688 70.3398C81.6827 73.1332 80.228 75.5059 77.867 77.867C75.7443 80.0287 73.1753 81.7016 70.3398 82.7688C67.6364 83.8193 64.5455 84.5371 60.022 84.745C55.4884 84.9529 54.0434 85 42.5 85C30.9565 85 29.5115 84.9505 24.9782 84.745C20.4543 84.5395 17.3636 83.8193 14.6601 82.7688C11.8669 81.6827 9.49404 80.228 7.13293 77.867C4.97111 75.7443 3.29831 73.1753 2.23125 70.3398C1.18057 67.6364 0.462786 64.5455 0.255 60.022C0.0472136 55.4884 0 54.0457 0 42.5C0 30.9542 0.0495704 29.5115 0.255 24.9806C0.460429 20.4543 1.18057 17.3636 2.23125 14.6601C3.29881 11.8247 4.9715 9.25604 7.13293 7.13293C9.25569 4.97111 11.8245 3.29831 14.6601 2.23125C17.3636 1.18057 20.4543 0.462786 24.9782 0.255ZM59.6746 7.905C55.1932 7.70193 53.8475 7.65707 42.5 7.65707C31.1525 7.65707 29.8067 7.70193 25.3253 7.905C21.1815 8.09389 18.9314 8.78568 17.4344 9.36889C15.4511 10.1386 14.0344 11.0594 12.5469 12.5469C11.0618 14.0344 10.1386 15.4511 9.36889 17.4344C8.78568 18.9314 8.09389 21.1815 7.905 25.3253C7.70193 29.8067 7.65707 31.1525 7.65707 42.5C7.65707 53.8475 7.70193 55.1932 7.905 59.6746C8.09389 63.8184 8.78568 66.0686 9.36889 67.5657C10.0497 69.4118 11.1357 71.0816 12.5469 72.4532C13.9181 73.8642 15.5883 74.9503 17.4344 75.6311C18.9314 76.2145 21.1815 76.9061 25.3253 77.095C29.8067 77.2982 31.1501 77.343 42.5 77.343C53.8498 77.343 55.1932 77.2982 59.6746 77.095C63.8184 76.9061 66.0686 76.2145 67.5657 75.6311C69.5489 74.8614 70.9657 73.9407 72.4532 72.4532C73.8642 71.082 74.9503 69.4118 75.6311 67.5657C76.2145 66.0686 76.9061 63.8184 77.095 59.6746C77.2982 55.1932 77.343 53.8475 77.343 42.5C77.343 31.1525 77.2982 29.8067 77.095 25.3253C76.9061 21.1815 76.2145 18.9314 75.6311 17.4344C74.8614 15.4511 73.9407 14.0344 72.4532 12.5469C70.9657 11.0618 69.5489 10.1386 67.5657 9.36889C66.0686 8.78568 63.8184 8.09389 59.6746 7.905ZM37.0735 55.6012C38.794 56.314 40.6377 56.6807 42.5 56.6807C46.2612 56.6807 49.868 55.1866 52.5273 52.5273C55.187 49.868 56.6811 46.2609 56.6811 42.5C56.6811 38.7391 55.187 35.132 52.5273 32.4726C49.868 29.8132 46.2612 28.3191 42.5 28.3191C40.6377 28.3191 38.794 28.686 37.0735 29.3986C35.3527 30.1112 33.7895 31.1558 32.4727 32.4726C31.1559 33.7894 30.1114 35.3527 29.3987 37.0731C28.6861 38.7936 28.3193 40.6377 28.3193 42.5C28.3193 44.3623 28.6861 46.2064 29.3987 47.9269C30.1114 49.6473 31.1559 51.2106 32.4727 52.5273C33.7895 53.844 35.3527 54.8887 37.0735 55.6012ZM27.0534 27.0532C31.1501 22.9565 36.7065 20.655 42.5 20.655C48.2939 20.655 53.8502 22.9565 57.9468 27.0532C62.0434 31.15 64.345 36.7065 64.345 42.5C64.345 48.2935 62.0434 53.8498 57.9468 57.9468C53.8502 62.0434 48.2939 64.345 42.5 64.345C36.7065 64.345 31.1501 62.0434 27.0534 57.9468C22.9566 53.8498 20.6551 48.2935 20.6551 42.5C20.6551 36.7065 22.9566 31.15 27.0534 27.0532ZM69.1888 23.9096C70.1571 22.9412 70.7011 21.6278 70.7011 20.2583C70.7011 18.8888 70.1571 17.5754 69.1888 16.607C68.2202 15.6386 66.907 15.0946 65.5373 15.0946C64.168 15.0946 62.8544 15.6386 61.8862 16.607C60.9176 17.5754 60.3736 18.8888 60.3736 20.2583C60.3736 21.6278 60.9176 22.9412 61.8862 23.9096C62.8544 24.878 64.168 25.4221 65.5373 25.4221C66.907 25.4221 68.2202 24.878 69.1888 23.9096Z" fill="#120333"/>
</svg>
