<svg width="50" height="50" viewBox="0 0 50 50" fill="none" xmlns="http://www.w3.org/2000/svg">
<path d="M41.7708 22.9168H8.22917C7.1361 22.9168 6.25 23.8029 6.25 24.8959V25.1043C6.25 26.1973 7.1361 27.0834 8.22917 27.0834H41.7708C42.8639 27.0834 43.75 26.1973 43.75 25.1043V24.8959C43.75 23.8029 42.8639 22.9168 41.7708 22.9168Z" fill="#120333"/>
<path d="M41.7708 33.3334H8.22917C7.1361 33.3334 6.25 34.2195 6.25 35.3126V35.5209C6.25 36.6139 7.1361 37.5001 8.22917 37.5001H41.7708C42.8639 37.5001 43.75 36.6139 43.75 35.5209V35.3126C43.75 34.2195 42.8639 33.3334 41.7708 33.3334Z" fill="#120333"/>
<path d="M41.7708 12.5H8.22917C7.1361 12.5 6.25 13.3861 6.25 14.4792V14.6875C6.25 15.7806 7.1361 16.6667 8.22917 16.6667H41.7708C42.8639 16.6667 43.75 15.7806 43.75 14.6875V14.4792C43.75 13.3861 42.8639 12.5 41.7708 12.5Z" fill="#120333"/>
</svg>
